<svg xmlns="http://www.w3.org/2000/svg" width="37px" height="40px" viewBox="0 0 37 39" fill="none">
    <path d="M 36.851562 8.867188 C 36.28125 4.75 32.589844 1.503906 28.210938 0.875 C 27.472656 0.769531 24.675781 0.382812 18.195312 0.382812 L 18.148438 0.382812 C 11.664062 0.382812 10.273438 0.769531 9.535156 0.875 C 5.28125 1.488281 1.394531 4.402344 0.453125 8.566406 C 0 10.621094 -0.0507812 12.894531 0.0351562 14.980469 C 0.152344 17.972656 0.175781 20.957031 0.457031 23.9375 C 0.648438 25.917969 0.988281 27.878906 1.464844 29.8125 C 2.363281 33.382812 5.988281 36.355469 9.542969 37.566406 C 13.347656 38.828125 17.441406 39.039062 21.363281 38.171875 C 21.792969 38.074219 22.21875 37.960938 22.640625 37.832031 C 23.59375 37.539062 24.710938 37.207031 25.53125 36.628906 C 25.542969 36.621094 25.550781 36.613281 25.558594 36.601562 C 25.5625 36.585938 25.566406 36.574219 25.570312 36.5625 L 25.570312 33.671875 C 25.566406 33.660156 25.566406 33.648438 25.558594 33.636719 C 25.554688 33.625 25.546875 33.617188 25.535156 33.609375 C 25.523438 33.601562 25.511719 33.59375 25.5 33.589844 C 25.488281 33.589844 25.472656 33.589844 25.460938 33.59375 C 22.949219 34.175781 20.375 34.46875 17.792969 34.460938 C 13.347656 34.460938 12.152344 32.414062 11.808594 31.558594 C 11.535156 30.820312 11.359375 30.054688 11.289062 29.269531 C 11.289062 29.257812 11.292969 29.246094 11.296875 29.234375 C 11.300781 29.222656 11.308594 29.210938 11.320312 29.203125 C 11.332031 29.195312 11.34375 29.1875 11.355469 29.183594 C 11.371094 29.183594 11.382812 29.183594 11.398438 29.1875 C 13.867188 29.765625 16.398438 30.058594 18.941406 30.058594 C 19.550781 30.058594 20.160156 30.058594 20.773438 30.042969 C 23.328125 29.972656 26.023438 29.84375 28.535156 29.367188 C 28.597656 29.355469 28.660156 29.34375 28.714844 29.328125 C 32.683594 28.589844 36.457031 26.265625 36.839844 20.382812 C 36.855469 20.152344 36.890625 17.957031 36.890625 17.71875 C 36.890625 16.902344 37.160156 11.921875 36.851562 8.867188 Z M 30.746094 23.542969 L 26.574219 23.542969 L 26.574219 13.617188 C 26.574219 11.527344 25.679688 10.460938 23.855469 10.460938 C 21.851562 10.460938 20.847656 11.722656 20.847656 14.214844 L 20.847656 19.648438 L 16.703125 19.648438 L 16.703125 14.214844 C 16.703125 11.722656 15.699219 10.460938 13.695312 10.460938 C 11.882812 10.460938 10.976562 11.527344 10.976562 13.617188 L 10.976562 23.542969 L 6.808594 23.542969 L 6.808594 13.316406 C 6.808594 11.226562 7.359375 9.566406 8.457031 8.335938 C 9.589844 7.109375 11.074219 6.476562 12.917969 6.476562 C 15.054688 6.476562 16.667969 7.277344 17.742188 8.871094 L 18.78125 10.5625 L 19.820312 8.871094 C 20.894531 7.277344 22.507812 6.476562 24.636719 6.476562 C 26.480469 6.476562 27.964844 7.109375 29.101562 8.335938 C 30.199219 9.566406 30.75 11.226562 30.75 13.316406 Z M 30.746094 23.542969" fill="currentColor"/>
</svg>
