<svg viewBox="0 0 27 27" fill="none" xmlns="http://www.w3.org/2000/svg">
  <path d="M6 17.3v-2.8H3.1a2.8 2.8 0 100 5.5c1.4 0 2.7-1.3 2.7-2.7zm1.3 0V24c0 1.5 1.3 2.8 2.7 2.8 1.6 0 2.8-1.3 2.8-2.8v-6.8a2.8 2.8 0 10-5.5 0zM10 6.2h2.8V3.4C12.8 2 11.6.6 10 .6a2.8 2.8 0 00-2.7 2.8C7.3 5 8.6 6.2 10 6.2zm0 1.3H3.2a2.8 2.8 0 100 5.5H10a2.8 2.8 0 100-5.5zm11.1 2.8V13H24c1.5 0 2.8-1.2 2.8-2.7 0-1.5-1.3-2.8-2.8-2.8a2.8 2.8 0 00-2.8 2.8zm-1.3 0V3.4C19.8 2 18.5.6 17 .6a2.8 2.8 0 00-2.7 2.8v6.9a2.8 2.8 0 105.5 0zm-2.8 11h-2.7v2.8a2.8 2.8 0 102.7-2.7zm0-1.3H24c1.5 0 2.8-1.3 2.8-2.7 0-1.6-1.3-2.8-2.8-2.8H17a2.8 2.8 0 100 5.5z" fill="currentColor"/>
</svg>
