<?xml version="1.0" encoding="utf-8"?>
<!-- Generator: Adobe Illustrator 23.1.1, SVG Export Plug-In . SVG Version: 6.00 Build 0)  -->
<svg version="1.1" id="Warstwa_1" xmlns="http://www.w3.org/2000/svg" xmlns:xlink="http://www.w3.org/1999/xlink" x="0px" y="0px"
	 viewBox="0 0 1534.4 374.1" style="enable-background:new 0 0 1534.4 374.1;" xml:space="preserve">
<style type="text/css">
	.st0{fill:#272727;}
	.st1{fill:#38D430;}
</style>
<title>Obszar roboczy 1</title>
<g id="logo">
	<path class="st0" d="M695.6,128.4h39.5c2.8,0,5.4,1.5,6.8,4l34.6,63.1c0.7,1.2,2.3,1.7,3.5,1c0.4-0.2,0.8-0.6,1-1l34.5-63.1
		c1.4-2.5,4-4.1,6.8-4.1h39.1c4.3,0,7.8,3.5,7.8,7.8v91.8c0,4.3-3.5,7.8-7.8,7.8c0,0,0,0,0,0h-16.1c-4.3,0-7.8-3.5-7.8-7.7
		c0,0,0,0,0,0v-0.1l1.3-64.9c0-1.4-1.1-2.6-2.5-2.6c-1,0-1.8,0.5-2.3,1.3l-40.4,70.2c-1.4,2.4-4,3.9-6.8,3.9h-17
		c-2.8,0-5.4-1.5-6.8-4l-39.6-70.2c-0.7-1.2-2.3-1.7-3.6-0.9c-0.8,0.5-1.3,1.3-1.3,2.3l0.8,64.9c0,4.3-3.4,7.8-7.7,7.9c0,0,0,0,0,0
		h-16c-4.3,0-7.8-3.4-7.8-7.7c0,0,0,0,0,0v-91.8C687.9,131.8,691.3,128.4,695.6,128.4z"/>
	<path class="st0" d="M999.2,210.1c8.9,0,9.5,0,13.4-1.3c7.9-2.4,10-8,10-26.6c0-22.6-3.8-27.2-22.7-27.2h-52.8
		c-1.4,0-2.6,1.1-2.6,2.5v49.9c0,1.4,1.1,2.6,2.5,2.6H999.2L999.2,210.1z M911.8,136.1c0-4.3,3.5-7.8,7.8-7.8h84.9
		c22.7,0,33.3,2.6,40.7,10c6,5.8,8.3,12.5,9.5,26.2c0.3,5,0.6,12.4,0.6,17.5c0.1,9-0.5,18-1.6,26.9c-1.8,12.9-10.8,22.9-22.5,25.1
		c-6.1,1.3-11,1.6-22.4,1.6h-89.2c-4.3,0-7.8-3.4-7.8-7.7c0,0,0,0,0,0l0,0L911.8,136.1z"/>
	<path class="st0" d="M1216.2,136.1v8.7c0,4.3-3.5,7.8-7.8,7.8l0,0h-80.7c-1.4,0-2.6,1.2-2.6,2.6v13.3c0,1.4,1.2,2.6,2.6,2.6h75.8
		c4.3,0,7.8,3.5,7.8,7.8v5.7c0,4.3-3.5,7.8-7.8,7.8h-75.7c-1.4,0-2.6,1.1-2.6,2.6v13.9c0,1.4,1.2,2.6,2.6,2.6h81.9
		c4.3,0,7.8,3.5,7.8,7.8c0,0,0,0,0,0l0,0v8.8c0,4.3-3.5,7.8-7.8,7.8l0,0h-108.9c-4.3,0-7.8-3.5-7.8-7.8l0,0v-91.8
		c0-4.3,3.5-7.8,7.8-7.8h107.7C1212.8,128.3,1216.2,131.8,1216.2,136.1z"/>
	<path class="st0" d="M1349.3,211.9c6.6,0,7.9-0.2,10-0.8c3.2-1.1,5.2-4.4,5.2-8.8s-1.9-7.9-5.5-9.2c-1.9-0.6-3.2-0.8-10.4-0.8
		h-55.1c-1.4,0-2.6,1.1-2.6,2.6c0,0,0,0,0,0v14.4c0,1.4,1.1,2.6,2.6,2.6c0,0,0,0,0,0L1349.3,211.9L1349.3,211.9z M1345.8,171.1
		c6.2,0,8.5-0.3,10.6-1.3c4.4-3.1,5.5-9.2,2.4-13.7c-1-1.4-2.3-2.5-3.9-3.2c-2.1-0.6-3.7-0.8-10-0.8h-51.5c-1.4,0-2.6,1.1-2.6,2.6
		v13.8c0,1.4,1.1,2.6,2.6,2.6c0,0,0,0,0,0H1345.8L1345.8,171.1z M1259,136.1c0-4.3,3.5-7.8,7.8-7.9h89c12.4,0,19.2,1.1,24.8,3.9
		c8.7,4.5,12.2,11.8,12.2,25.4c0,14-4.8,21.3-15,23.2c14.5,2.8,19.3,9,19.3,24.6c0,13.5-3.9,22-12.4,26.6c-5,2.6-12.1,3.7-24.5,3.7
		h-93.5c-4.3,0-7.8-3.5-7.8-7.9L1259,136.1z"/>
	<path class="st0" d="M630.2,182c12.5-3.2,15.6-7.9,15.6-23.6c0-25.7-8.8-30.3-59.9-30.3c-13.5,0-23.5,0.2-30.4,0.8
		c-13.8,0.8-22,3.4-27.2,7.9c-4.6,4.2-6.2,7.8-7.1,19.4c-0.3,4.3,3,8,7.3,8.3c0,0,0,0,0,0h16.3c3.1,0,5.6-2.3,6-5.3l0,0
		c0.4-3.4,2.7-6.2,5.8-7.4c3.9-1.5,3.5-1.5,26.8-1.9c22.2,0.6,22.2,0.6,26.1,2.1c3.6,1.5,5.8,5.2,5.5,9.2c0,4.5-1.5,7.2-4.3,8.9
		c-1.9,1-8.3,1.8-15.1,1.8h-16.4c-4.3,0-7.8,3.4-7.8,7.7c0,0,0,0,0,0v4.8c0,4.3,3.5,7.8,7.8,7.8c0,0,0,0,0,0h16.4
		c6.8,0,13.2,0.8,15.1,1.8c2.9,1.6,4.3,4.4,4.3,8.9c0.3,3.9-1.9,7.6-5.5,9.2c-3.8,1.4-3.8,1.4-26.1,2.1c-22.9-0.3-22.9-0.3-26.6-1.8
		c-3.4-1-5.8-4-6-7.5l0,0c-0.4-3-2.9-5.3-6-5.4h-15.9c-4.3,0-7.8,3.5-7.8,7.9c0,0,0,0,0,0c0,0.2,0,0.3,0,0.5
		c0.8,11.6,2.5,15.3,7.1,19.4c5.2,4.5,13.4,7.1,27.2,7.9c6.9,0.6,16.9,0.8,30.4,0.8c51,0,59.9-4.5,59.9-30.2
		C645.8,189.9,642.8,185.2,630.2,182z"/>
	<path class="st0" d="M236.5,118.6c-7.5,0-13.6-6.2-13.6-13.7l0,0c0-7.5,6.1-13.6,13.6-13.7h71.3c7.6,0,13.7,6.1,13.7,13.7l0,0l0,0
		c0,7.5,6.1,13.6,13.6,13.6h99.5c7.6,0,13.7,6.1,13.7,13.7l0,0c0,7.6-6.2,13.7-13.7,13.7H307c-7.6,0-13.7-6.1-13.7-13.7l0,0
		c0-7.5-6.1-13.6-13.6-13.6L236.5,118.6z"/>
	<path class="st0" d="M151.9,255.5c-7.6,0-13.7,6.1-13.7,13.7v0.4c0.4,7.5,6.7,13.4,14.3,13.3h155c7.6,0,13.7-6.1,13.7-13.7l0,0l0,0
		c0-7.6,6.1-13.7,13.7-13.7c0,0,0.1,0,0.1,0h99.1c7.6,0.1,13.9-5.7,14.3-13.3c0.2-7.6-5.7-13.9-13.3-14.1c0,0,0,0,0,0H378
		c-7.5,0.1-13.9-5.7-14.3-13.3c-0.2-7.6,5.7-13.9,13.3-14.1c0,0,0,0,0,0h14.7c7.6,0.1,13.9-5.7,14.3-13.3
		c0.3-7.5-5.6-13.9-13.2-14.2H265.2c-7.5-0.1-13.8,5.7-14.2,13.3c-0.2,7.6,5.7,13.9,13.3,14.1h57c7.5-0.1,13.8,5.8,14.2,13.3
		c0.2,7.6-5.7,13.9-13.2,14.1c0,0,0,0,0,0H307c-7.6,0-13.7,6.1-13.7,13.7l0,0l0,0c0,7.6-6.1,13.7-13.7,13.7l0,0l0,0L151.9,255.5z"/>
	<circle class="st1" cx="180.5" cy="104.9" r="14.1"/>
</g>
</svg>
