<svg width="220" height="72" viewBox="0 0 220 72" fill="none" xmlns="http://www.w3.org/2000/svg">
<path d="M94.163 37.8891C94.163 48.243 86.0203 55.8726 76.0273 55.8726C66.0343 55.8726 57.8916 48.243 57.8916 37.8891C57.8916 27.4623 66.0343 19.9056 76.0273 19.9056C86.0203 19.9056 94.163 27.4623 94.163 37.8891ZM86.2241 37.8891C86.2241 31.419 81.5047 26.992 76.0273 26.992C70.5499 26.992 65.8306 31.419 65.8306 37.8891C65.8306 44.2944 70.5499 48.7862 76.0273 48.7862C81.5047 48.7862 86.2241 44.2863 86.2241 37.8891Z" fill="#EA4335"/>
<path d="M133.287 37.8891C133.287 48.243 125.144 55.8726 115.151 55.8726C105.158 55.8726 97.0156 48.243 97.0156 37.8891C97.0156 27.4704 105.158 19.9056 115.151 19.9056C125.144 19.9056 133.287 27.4623 133.287 37.8891ZM125.348 37.8891C125.348 31.419 120.629 26.992 115.151 26.992C109.674 26.992 104.955 31.419 104.955 37.8891C104.955 44.2944 109.674 48.7862 115.151 48.7862C120.629 48.7862 125.348 44.2863 125.348 37.8891Z" fill="#FBBC05"/>
<path d="M170.782 20.9921V53.2781C170.782 66.5589 162.908 71.9832 153.6 71.9832C144.837 71.9832 139.564 66.1535 137.575 61.3861L144.487 58.5239C145.718 61.4509 148.733 64.9049 153.591 64.9049C159.55 64.9049 163.242 61.2482 163.242 54.3645V51.7781H162.965C161.188 53.9591 157.765 55.8645 153.445 55.8645C144.405 55.8645 136.124 48.0322 136.124 37.954C136.124 27.8028 144.405 19.9056 153.445 19.9056C157.756 19.9056 161.18 21.811 162.965 23.9272H163.242V21.0002H170.782V20.9921ZM163.804 37.954C163.804 31.6217 159.558 26.992 154.154 26.992C148.676 26.992 144.087 31.6217 144.087 37.954C144.087 44.2215 148.676 48.7863 154.154 48.7863C159.558 48.7863 163.804 44.2215 163.804 37.954Z" fill="#4285F4"/>
<path d="M183.211 2.06812V54.77H175.468V2.06812H183.211Z" fill="#34A853"/>
<path d="M213.386 43.8079L219.548 47.8943C217.559 50.8213 212.766 55.8644 204.485 55.8644C194.215 55.8644 186.545 47.9673 186.545 37.881C186.545 27.1865 194.28 19.8975 203.597 19.8975C212.978 19.8975 217.567 27.3244 219.067 31.3378L219.89 33.381L195.723 43.3376C197.573 46.9457 200.45 48.7862 204.485 48.7862C208.528 48.7862 211.332 46.8078 213.386 43.8079ZM194.419 37.3377L210.574 30.6649C209.685 28.4189 207.012 26.8541 203.866 26.8541C199.831 26.8541 194.215 30.3973 194.419 37.3377Z" fill="#EA4335"/>
<path d="M28.5814 33.2109V25.5813H54.4278C54.6805 26.911 54.8109 28.484 54.8109 30.1866C54.8109 35.9109 53.2378 42.9891 48.1679 48.0323C43.2366 53.1403 36.936 55.8646 28.5895 55.8646C13.1191 55.8646 0.110352 43.3297 0.110352 27.9407C0.110352 12.5518 13.1191 0.0168457 28.5895 0.0168457C37.1479 0.0168457 43.2448 3.35733 47.8256 7.71132L42.4134 13.095C39.1286 10.0302 34.6782 7.64645 28.5814 7.64645C17.2842 7.64645 8.4487 16.7031 8.4487 27.9407C8.4487 39.1784 17.2842 48.235 28.5814 48.235C35.909 48.235 40.0822 45.308 42.7557 42.6486C44.9239 40.4919 46.3503 37.4108 46.9127 33.2028L28.5814 33.2109Z" fill="#4285F4"/>
</svg>
