<svg width="280" height="122" viewBox="0 0 280 122" fill="none" xmlns="http://www.w3.org/2000/svg">
<path d="M76.1499 31.2817C74.7993 31.2778 73.4674 31.5979 72.2661 32.2151L56.6102 16.1527V12.6602H67.9456C68.5576 14.6224 69.8524 16.3004 71.5953 17.3899C73.3383 18.4794 75.4139 18.9083 77.4459 18.5988C79.4779 18.2893 81.3317 17.2619 82.6712 15.7029C84.0107 14.1439 84.7473 12.1565 84.7473 10.1011C84.7473 8.04566 84.0107 6.05827 82.6712 4.49928C81.3317 2.94028 79.4779 1.9129 77.4459 1.6034C75.4139 1.2939 73.3383 1.72277 71.5953 2.81226C69.8524 3.90176 68.5576 5.57973 67.9456 7.54195H56.6102V2.40861H29.6338V7.54195H18.2983C17.6865 5.58389 16.3934 3.90982 14.6534 2.82316C12.9135 1.73651 10.8418 1.30917 8.81382 1.61863C6.78587 1.92808 4.93589 2.95384 3.5992 4.50998C2.2625 6.06612 1.52756 8.04966 1.52756 10.1011C1.52756 12.1525 2.2625 14.136 3.5992 15.6922C4.93589 17.2483 6.78587 18.2741 8.81382 18.5835C10.8418 18.893 12.9135 18.4657 14.6534 17.379C16.3934 16.2924 17.6865 14.6183 18.2983 12.6602H29.6338V16.1527L13.993 32.2151C12.6846 31.5477 11.2268 31.2273 9.7591 31.2846C8.29144 31.342 6.86308 31.7751 5.61073 32.5425C4.35839 33.3099 3.324 34.386 2.60659 35.6676C1.88917 36.9493 1.51277 38.3936 1.51339 39.8624C1.46489 41.0204 1.65111 42.1763 2.06085 43.2606C2.47058 44.3448 3.09536 45.335 3.89763 46.1716C4.69989 47.0082 5.66306 47.6738 6.72921 48.1286C7.79536 48.5833 8.94248 48.8177 10.1016 48.8177C11.2606 48.8177 12.4077 48.5833 13.4739 48.1286C14.5401 47.6738 15.5032 47.0082 16.3055 46.1716C17.1077 45.335 17.7325 44.3448 18.1423 43.2606C18.552 42.1763 18.7382 41.0204 18.6897 39.8624C18.6908 38.437 18.3336 37.0341 17.651 35.7828L29.694 23.4989V29.385H32.7048L18.0424 61.4344C17.6815 61.412 17.3195 61.412 16.9586 61.4344C14.9457 61.4319 12.9956 62.1346 11.447 63.4205C9.89838 64.7063 8.8492 66.4941 8.48171 68.4731C8.11423 70.4521 8.45167 72.4974 9.4354 74.2535C10.4191 76.0096 11.987 77.3655 13.8666 78.0858C15.7461 78.806 17.8187 78.8451 19.724 78.1961C21.6294 77.5471 23.2472 76.2511 24.2963 74.5333C25.3455 72.8155 25.7597 70.7844 25.467 68.793C25.1742 66.8015 24.1931 64.9755 22.694 63.6323L38.3349 29.385H40.6231V77.557C38.6608 78.169 36.9829 79.4638 35.8934 81.2067C34.8039 82.9496 34.375 85.0252 34.6845 87.0572C34.994 89.0892 36.0214 90.943 37.5804 92.2826C39.1394 93.6221 41.1268 94.3586 43.1822 94.3586C45.2376 94.3586 47.225 93.6221 48.784 92.2826C50.343 90.943 51.3704 89.0892 51.6799 87.0572C51.9894 85.0252 51.5605 82.9496 50.471 81.2067C49.3815 79.4638 47.7036 78.169 45.7413 77.557V29.385H48.0295L63.6704 63.557C62.1752 64.8986 61.1971 66.7215 60.9059 68.7091C60.6148 70.6967 61.029 72.7236 62.0767 74.4376C63.1243 76.1516 64.7392 77.4446 66.6408 78.092C68.5425 78.7393 70.6109 78.7002 72.4867 77.9814C74.3625 77.2626 75.9273 75.9095 76.9094 74.157C77.8915 72.4046 78.2287 70.3636 77.8626 68.3884C77.4966 66.4132 76.4502 64.6286 74.9054 63.3445C73.3605 62.0604 71.4147 61.358 69.4059 61.3591C69.045 61.3357 68.6829 61.3357 68.322 61.3591L53.6596 29.3097H56.6704V23.4989L68.7134 35.7828C68.0354 37.0353 67.6834 38.4382 67.6897 39.8624C67.6868 41.5637 68.1887 43.2277 69.1321 44.6436C70.0754 46.0594 71.4178 47.1635 72.989 47.8159C74.5603 48.4684 76.2899 48.6399 77.9587 48.3087C79.6275 47.9775 81.1605 47.1585 82.3635 45.9555C83.5665 44.7525 84.3855 43.2195 84.7167 41.5507C85.0479 39.8819 84.8764 38.1523 84.2239 36.581C83.5715 35.0098 82.4674 33.6675 81.0516 32.7241C79.6357 31.7807 77.9717 31.2788 76.2704 31.2817H76.1499ZM76.1499 6.62367C76.8383 6.62069 77.5121 6.8221 78.086 7.20239C78.6598 7.58268 79.1079 8.12473 79.3734 8.75987C79.6389 9.39502 79.7099 10.0947 79.5774 10.7702C79.4449 11.4458 79.115 12.0668 78.6292 12.5546C78.1435 13.0425 77.5239 13.3751 76.849 13.5105C76.174 13.6459 75.474 13.578 74.8378 13.3152C74.2015 13.0525 73.6575 12.6068 73.2747 12.0346C72.8919 11.4624 72.6876 10.7895 72.6876 10.1011C72.6856 9.64513 72.7737 9.19329 72.9468 8.77147C73.1199 8.34966 73.3746 7.96619 73.6964 7.64309C74.0181 7.31998 74.4004 7.06359 74.8215 6.88865C75.2425 6.71371 75.694 6.62366 76.1499 6.62367ZM10.094 13.5635C9.40562 13.5634 8.7327 13.3591 8.16052 12.9763C7.58834 12.5936 7.14265 12.0496 6.8799 11.4133C6.61715 10.777 6.54917 10.077 6.68457 9.40206C6.81997 8.7271 7.15266 8.10751 7.6405 7.62179C8.12833 7.13607 8.74935 6.80608 9.42489 6.6736C10.1004 6.54113 10.8001 6.61215 11.4352 6.87766C12.0704 7.14317 12.6124 7.59121 12.9927 8.16505C13.373 8.73888 13.5744 9.41268 13.5715 10.1011C13.5715 10.557 13.4814 11.0085 13.3065 11.4296C13.1315 11.8506 12.8751 12.233 12.552 12.5547C12.2289 12.8764 11.8455 13.1311 11.4236 13.3042C11.0018 13.4773 10.55 13.5654 10.094 13.5635ZM10.094 43.3398C9.40626 43.3398 8.73394 43.1358 8.16208 42.7537C7.59022 42.3716 7.14451 41.8285 6.88131 41.1931C6.61811 40.5577 6.54925 39.8585 6.68343 39.184C6.81761 38.5094 7.1488 37.8898 7.63512 37.4035C8.12145 36.9171 8.74107 36.5859 9.41562 36.4518C10.0902 36.3176 10.7894 36.3865 11.4248 36.6497C12.0602 36.9129 12.6033 37.3586 12.9854 37.9304C13.3675 38.5023 13.5715 39.1746 13.5715 39.8624C13.5734 40.3196 13.4849 40.7727 13.3108 41.1955C13.1367 41.6183 12.8807 42.0024 12.5574 42.3257C12.2341 42.649 11.8499 42.9051 11.4271 43.0792C11.0043 43.2532 10.5512 43.3418 10.094 43.3398ZM16.9134 73.4473C16.225 73.4473 15.5521 73.243 14.9799 72.8602C14.4077 72.4774 13.962 71.9334 13.6992 71.2971C13.4365 70.6609 13.3685 69.9609 13.5039 69.2859C13.6393 68.611 13.972 67.9914 14.4599 67.5057C14.9477 67.02 15.5687 66.6899 16.2442 66.5575C16.9198 66.425 17.6195 66.496 18.2546 66.7615C18.8897 67.027 19.4318 67.4751 19.8121 68.0489C20.1924 68.6227 20.3938 69.2965 20.3908 69.9849C20.3789 70.8994 20.0073 71.7723 19.3565 72.4147C18.7056 73.0571 17.8279 73.4173 16.9134 73.4172V73.4473ZM43.122 89.1936C42.4342 89.1936 41.7619 88.9896 41.19 88.6075C40.6182 88.2254 40.1725 87.6823 39.9093 87.0469C39.6461 86.4115 39.5772 85.7123 39.7114 85.0377C39.8456 84.3632 40.1768 83.7436 40.6631 83.2572C41.1494 82.7709 41.769 82.4397 42.4436 82.3055C43.1181 82.1714 43.8173 82.2402 44.4527 82.5034C45.0882 82.7666 45.6312 83.2123 46.0134 83.7842C46.3955 84.3561 46.5994 85.0284 46.5994 85.7161C46.5915 86.6332 46.2216 87.51 45.5703 88.1556C44.919 88.8013 44.0391 89.1635 43.122 89.1635V89.1936ZM72.8231 69.9849C72.8231 70.6727 72.6191 71.345 72.237 71.9169C71.8549 72.4888 71.3118 72.9345 70.6764 73.1977C70.041 73.4609 69.3418 73.5297 68.6672 73.3956C67.9927 73.2614 67.3731 72.9302 66.8867 72.4439C66.4004 71.9575 66.0692 71.3379 65.935 70.6634C65.8009 69.9888 65.8697 69.2896 66.1329 68.6542C66.3961 68.0188 66.8418 67.4757 67.4137 67.0936C67.9856 66.7115 68.6579 66.5075 69.3456 66.5075C70.2627 66.5075 71.1427 66.8697 71.794 67.5154C72.4453 68.161 72.8151 69.0378 72.8231 69.9548V69.9849ZM34.7521 7.52689H51.4919V24.2667H34.7521V7.52689ZM76.1499 43.3398C75.4622 43.3398 74.7898 43.1358 74.218 42.7537C73.6461 42.3716 73.2004 41.8285 72.9372 41.1931C72.674 40.5577 72.6052 39.8585 72.7393 39.184C72.8735 38.5094 73.2047 37.8898 73.691 37.4035C74.1774 36.9171 74.797 36.5859 75.4715 36.4518C76.1461 36.3176 76.8453 36.3865 77.4807 36.6497C78.1161 36.9129 78.6592 37.3586 79.0413 37.9304C79.4234 38.5023 79.6274 39.1746 79.6274 39.8624C79.6293 40.3196 79.5408 40.7727 79.3667 41.1955C79.1927 41.6183 78.9366 42.0024 78.6133 42.3257C78.29 42.649 77.9059 42.9051 77.4831 43.0792C77.0603 43.2532 76.6072 43.3418 76.1499 43.3398Z" fill="white"/>
<path d="M46.4338 12.6001H39.8252V19.2087H46.4338V12.6001Z" fill="#F96360"/>
<path d="M136.733 13.2323C136.7 15.4699 136.007 17.6479 134.74 19.4925C133.473 21.3372 131.689 22.7662 129.613 23.6C127.536 24.4338 125.259 24.635 123.068 24.1786C120.878 23.7221 118.871 22.6282 117.3 21.0344C115.729 19.4406 114.664 17.418 114.239 15.2209C113.815 13.0237 114.049 10.75 114.913 8.68563C115.776 6.62122 117.231 4.8582 119.094 3.61815C120.957 2.3781 123.145 1.71637 125.382 1.71614C126.901 1.66666 128.412 1.932 129.823 2.49542C131.233 3.05885 132.512 3.90817 133.578 4.98993C134.644 6.07169 135.475 7.36246 136.018 8.78098C136.561 10.1995 136.804 11.7151 136.733 13.2323ZM130.712 13.2323C130.712 9.58926 128.649 6.87958 125.337 6.87958C122.026 6.87958 119.933 9.58926 119.933 13.2323C119.933 16.8753 121.98 19.2538 125.337 19.2538C128.694 19.2538 130.757 16.8 130.757 13.2323H130.712ZM156.724 9.52904C156.798 10.575 156.653 11.6248 156.297 12.6112C155.941 13.5976 155.383 14.4988 154.659 15.257C153.935 16.0152 153.06 16.6138 152.091 17.0143C151.122 17.4148 150.08 17.6085 149.032 17.5828H146.021V24.1613H140V2.03226H148.701C149.731 1.95787 150.766 2.09645 151.741 2.43935C152.715 2.78226 153.609 3.32216 154.366 4.02542C155.123 4.72869 155.727 5.58027 156.14 6.52712C156.554 7.47397 156.768 8.49583 156.77 9.52904H156.724ZM145.886 12.4043H148.385C148.732 12.4219 149.079 12.366 149.403 12.2402C149.727 12.1144 150.021 11.9216 150.266 11.6743C150.51 11.427 150.7 11.1309 150.822 10.8053C150.944 10.4797 150.996 10.132 150.974 9.78495C150.996 9.4392 150.944 9.0927 150.822 8.76854C150.7 8.44439 150.51 8.15001 150.265 7.90502C150.02 7.66004 149.725 7.47006 149.401 7.34776C149.077 7.22545 148.73 7.17361 148.385 7.1957H145.886V12.4043ZM176.52 24.1613H159.78V2.03226H176.339V7.1957H165.591V10.5376H173.208V15.6559H165.591V19.043H176.505L176.52 24.1613ZM185.402 2.03226L192.929 9.24302V2.03226H198.8V24.1613H192.929V16.8903L185.658 10.0409V24.1613H179.772V2.03226H185.402ZM130.877 52.086C130.877 57.0237 125.759 59.1011 121.995 59.1011C119.07 59.128 116.197 58.3185 113.716 56.7677L115.899 52.0559C117.66 53.163 119.665 53.8243 121.739 53.9828C123.516 53.9828 124.75 53.471 124.75 52.4774C124.75 49.6022 114.378 50.4903 114.378 42.9635C114.378 38.4473 118.894 36.3247 122.823 36.3247C125.318 36.2958 127.788 36.8094 130.064 37.8301L128.228 42.7678C126.601 41.9951 124.845 41.5306 123.049 41.3979C121.709 41.3979 120.49 41.7441 120.49 42.9032C120.55 45.1613 130.877 44.785 130.877 52.086ZM155.324 47.8559C155.292 50.0935 154.598 52.2715 153.332 54.1162C152.065 55.9609 150.281 57.3899 148.204 58.2236C146.127 59.0574 143.851 59.2587 141.66 58.8022C139.469 58.3457 137.462 57.2518 135.891 55.658C134.32 54.0643 133.256 52.0417 132.831 49.8445C132.406 47.6474 132.64 45.3737 133.504 43.3093C134.368 41.2449 135.823 39.4819 137.685 38.2418C139.548 37.0018 141.736 36.34 143.974 36.3398C145.492 36.2903 147.004 36.5557 148.414 37.1191C149.825 37.6825 151.103 38.5318 152.17 39.6136C153.236 40.6953 154.067 41.9861 154.61 43.4046C155.152 44.8232 155.396 46.3387 155.324 47.8559ZM149.303 47.8559C149.303 44.2129 147.241 41.5032 143.929 41.5032C140.617 41.5032 138.524 44.2129 138.524 47.8559C138.524 51.4989 140.572 53.8774 143.929 53.8774C147.286 53.8774 149.348 51.4237 149.348 47.8559H149.303ZM171.041 36.6559H176.957V50.5656C176.957 55.7591 172.245 59.1011 167.638 59.1011C163.032 59.1011 158.275 55.7591 158.275 50.5656V36.6559H164.161V50.2796C164.13 50.7504 164.196 51.2227 164.354 51.667C164.513 52.1114 164.761 52.5185 165.084 52.863C165.406 53.2075 165.796 53.4822 166.229 53.6699C166.662 53.8577 167.129 53.9546 167.601 53.9546C168.073 53.9546 168.54 53.8577 168.972 53.6699C169.405 53.4822 169.795 53.2075 170.118 52.863C170.44 52.5185 170.688 52.1114 170.847 51.667C171.006 51.2227 171.072 50.7504 171.041 50.2796V36.6559ZM187.103 51.8903V58.785H181.232V36.6559H189.888C190.917 36.5878 191.95 36.7321 192.921 37.0797C193.892 37.4274 194.782 37.971 195.534 38.6769C196.287 39.3827 196.886 40.2357 197.295 41.1828C197.704 42.13 197.914 43.1511 197.912 44.1828C197.987 45.526 197.688 46.8637 197.047 48.0467C196.407 49.2297 195.45 50.2112 194.284 50.8817L199.221 58.8151H192.357L188.367 51.9204L187.103 51.8903ZM192.161 44.2129C192.168 43.8849 192.107 43.5591 191.98 43.2563C191.854 42.9536 191.666 42.6806 191.427 42.4551C191.189 42.2296 190.906 42.0565 190.597 41.947C190.288 41.8375 189.959 41.794 189.632 41.8194H187.103V46.6667H189.677C190.008 46.6855 190.339 46.6356 190.649 46.5199C190.96 46.4043 191.242 46.2255 191.48 45.9949C191.718 45.7642 191.905 45.4868 192.03 45.1801C192.155 44.8733 192.215 44.544 192.206 44.2129H192.161ZM220.01 57.4C217.695 58.5156 215.159 59.0969 212.589 59.1011C209.571 59.1011 206.676 57.9021 204.542 55.7678C202.407 53.6335 201.208 50.7388 201.208 47.7204C201.208 44.7021 202.407 41.8074 204.542 39.6731C206.676 37.5388 209.571 36.3398 212.589 36.3398C215.055 36.2942 217.502 36.7713 219.77 37.7398L217.903 42.6323C216.293 41.9715 214.583 41.5897 212.845 41.5032C209.081 41.5032 207.215 44.3032 207.215 47.8559C207.215 51.4086 209.081 53.8774 212.845 53.8774C214.706 53.738 216.527 53.2637 218.219 52.4774L220.01 57.4ZM239.957 58.785H223.217V36.6559H239.776V41.8194H229.163V45.1613H236.78V50.2796H229.163V53.6667H240.062L239.957 58.785ZM121.137 93.4086H115.251V71.2796H130.967V76.443H121.182V79.785H128.574V84.9333H121.182L121.137 93.4086ZM133.557 71.2796H139.473V93.4086H133.557V71.2796ZM149.935 86.514V93.4086H144.049V71.2796H152.705C153.736 71.2093 154.77 71.352 155.743 71.6987C156.716 72.0453 157.607 72.5886 158.361 73.2947C159.116 74.0007 159.716 74.8545 160.126 75.8027C160.536 76.751 160.746 77.7734 160.744 78.8065C160.816 80.1509 160.514 81.489 159.871 82.6718C159.228 83.8546 158.269 84.8356 157.101 85.5054L162.038 93.4387H155.174L151.2 86.5441L149.935 86.514ZM154.993 78.8366C155.001 78.5086 154.939 78.1827 154.813 77.88C154.686 77.5772 154.498 77.3043 154.26 77.0788C154.021 76.8533 153.739 76.6802 153.429 76.5707C153.12 76.4612 152.791 76.4177 152.464 76.443H149.935V81.2903H152.464C152.8 81.318 153.137 81.2746 153.455 81.1629C153.772 81.0512 154.063 80.8738 154.307 80.6422C154.552 80.4106 154.744 80.1301 154.873 79.819C155.002 79.5078 155.063 79.1731 155.053 78.8366H154.993ZM181.473 93.4086V80.3871L177.965 85.2796H174.744L171.236 80.3871V93.4086H165.35V71.2796H171.086L176.355 78.4903L181.638 71.2796H187.359V93.4086H181.473ZM191.318 71.2796H197.204L198.152 86.3334H198.273L201.088 80.071H205.453L208.238 86.3334H208.359L209.337 71.2796H215.269L212.905 93.4086H207.426L203.421 85.4753H203.226L199.236 93.4086H193.772L191.318 71.2796ZM237.021 93.4086H231.135V87.1161H224.752V93.4086H218.851V79.3484C218.926 77.0218 219.917 74.819 221.609 73.2202C223.301 71.6214 225.556 70.7561 227.884 70.8129C232.4 70.8129 236.916 74.471 236.916 79.3484L237.021 93.4086ZM231.135 79.8602C231.198 79.4044 231.162 78.9403 231.031 78.4994C230.899 78.0584 230.675 77.6508 230.372 77.3039C230.07 76.957 229.697 76.679 229.278 76.4884C228.859 76.2979 228.404 76.1993 227.944 76.1993C227.484 76.1993 227.029 76.2979 226.61 76.4884C226.191 76.679 225.818 76.957 225.515 77.3039C225.213 77.6508 224.989 78.0584 224.857 78.4994C224.725 78.9403 224.69 79.4044 224.752 79.8602V81.8624H231.135V79.8602ZM247.167 86.529V93.4237H241.296V71.2946H249.952C250.982 71.2265 252.014 71.3708 252.986 71.7184C253.957 72.0661 254.846 72.6097 255.599 73.3156C256.351 74.0214 256.951 74.8744 257.36 75.8216C257.768 76.7687 257.978 77.7898 257.976 78.8215C258.048 80.1641 257.748 81.5006 257.107 82.6829C256.467 83.8652 255.512 84.8473 254.348 85.5204L259.271 93.4538H252.421L248.432 86.5592L247.167 86.529ZM252.226 78.8516C252.233 78.5236 252.171 78.1978 252.045 77.895C251.919 77.5923 251.73 77.3194 251.492 77.0938C251.254 76.8683 250.971 76.6953 250.662 76.5858C250.352 76.4762 250.024 76.4328 249.696 76.4581H247.167V81.2903H249.696C250.031 81.3158 250.367 81.2707 250.683 81.158C250.998 81.0453 251.287 80.8676 251.53 80.6362C251.772 80.4049 251.964 80.1251 252.091 79.8151C252.219 79.5051 252.28 79.1717 252.271 78.8366L252.226 78.8516ZM279.322 93.4237H262.643V71.2946H279.202V76.4581H268.589V79.785H276.206V84.9032H268.589V88.2903H279.488L279.322 93.4237Z" fill="#F96360"/>
<path d="M160.609 120.43H157.929V107.153H166.781V109.516H160.609V112.527H165.26V114.89H160.609V120.43ZM180.796 113.867C180.752 115.177 180.323 116.446 179.562 117.515C178.802 118.584 177.744 119.405 176.521 119.877C175.297 120.349 173.961 120.45 172.681 120.169C171.4 119.887 170.23 119.235 169.317 118.293C168.404 117.352 167.788 116.162 167.546 114.873C167.305 113.584 167.447 112.252 167.957 111.044C168.467 109.836 169.32 108.804 170.412 108.077C171.504 107.35 172.785 106.961 174.097 106.957C174.996 106.926 175.892 107.083 176.728 107.418C177.564 107.752 178.321 108.257 178.951 108.9C179.581 109.543 180.07 110.309 180.388 111.151C180.705 111.994 180.844 112.893 180.796 113.791V113.867ZM178.071 113.867C178.071 111.262 176.566 109.351 174.097 109.351C171.628 109.351 170.138 111.277 170.138 113.867C170.078 114.423 170.137 114.986 170.309 115.518C170.481 116.051 170.763 116.541 171.138 116.957C171.512 117.373 171.969 117.706 172.48 117.934C172.991 118.162 173.545 118.28 174.104 118.28C174.664 118.28 175.217 118.162 175.729 117.934C176.24 117.706 176.697 117.373 177.071 116.957C177.445 116.541 177.728 116.051 177.9 115.518C178.072 114.986 178.131 114.423 178.071 113.867ZM191.017 107.153H193.727V115.613C193.625 116.969 193.015 118.236 192.018 119.161C191.022 120.086 189.712 120.6 188.353 120.6C186.993 120.6 185.684 120.086 184.687 119.161C183.69 118.236 183.08 116.969 182.979 115.613V107.153H185.673V115.282C185.626 115.662 185.66 116.047 185.775 116.413C185.889 116.778 186.08 117.115 186.336 117.4C186.591 117.685 186.904 117.913 187.255 118.067C187.606 118.221 187.985 118.298 188.368 118.292C188.748 118.296 189.125 118.218 189.473 118.062C189.82 117.907 190.13 117.679 190.382 117.393C190.633 117.108 190.82 116.771 190.93 116.407C191.039 116.042 191.069 115.659 191.017 115.282V107.153ZM204.942 112.512V107.153H207.637V120.43H204.942V115.914L199.447 110.705H199.372V120.43H196.678V107.153H199.192L204.867 112.512H204.942ZM214.561 107.153C218.927 107.153 221.426 109.802 221.426 113.791C221.426 117.781 218.927 120.43 214.561 120.43H210.753V107.153H214.561ZM214.29 118.052C217.407 118.052 218.807 116.335 218.807 113.791C218.807 111.247 217.482 109.516 214.29 109.516H213.462V118.052H214.29ZM234.101 120.43H231.407V116.065H226.303V120.43H223.609V111.834C223.622 111.161 223.769 110.497 224.042 109.881C224.314 109.265 224.706 108.709 225.194 108.245C225.683 107.782 226.259 107.42 226.889 107.181C227.518 106.941 228.189 106.83 228.862 106.852C230.211 106.843 231.51 107.357 232.487 108.286C233.464 109.215 234.043 110.487 234.101 111.834V120.43ZM231.407 112.151C231.455 111.787 231.425 111.417 231.319 111.066C231.213 110.715 231.033 110.391 230.792 110.115C230.55 109.839 230.252 109.618 229.918 109.466C229.584 109.315 229.222 109.236 228.855 109.236C228.488 109.236 228.126 109.315 227.792 109.466C227.458 109.618 227.16 109.839 226.918 110.115C226.677 110.391 226.497 110.715 226.391 111.066C226.285 111.417 226.255 111.787 226.303 112.151V113.776H231.407V112.151ZM245.843 107.153V109.516H241.733V120.43H239.039V109.441H234.929V107.077L245.843 107.153ZM247.635 107.153H250.344V120.43H247.635V107.153ZM266.09 113.867C266.046 115.177 265.617 116.446 264.857 117.515C264.097 118.584 263.039 119.405 261.815 119.877C260.592 120.349 259.256 120.45 257.975 120.169C256.694 119.887 255.524 119.235 254.612 118.293C253.699 117.352 253.083 116.162 252.841 114.873C252.599 113.584 252.742 112.252 253.252 111.044C253.761 109.836 254.615 108.804 255.707 108.077C256.799 107.35 258.08 106.961 259.392 106.957C260.291 106.926 261.187 107.083 262.023 107.418C262.858 107.752 263.615 108.257 264.245 108.9C264.875 109.543 265.365 110.309 265.682 111.151C266 111.994 266.139 112.893 266.09 113.791V113.867ZM263.366 113.867C263.366 111.262 261.86 109.351 259.392 109.351C256.923 109.351 255.432 111.277 255.432 113.867C255.373 114.423 255.431 114.986 255.603 115.518C255.776 116.051 256.058 116.541 256.432 116.957C256.806 117.373 257.264 117.706 257.775 117.934C258.286 118.162 258.839 118.28 259.399 118.28C259.959 118.28 260.512 118.162 261.023 117.934C261.534 117.706 261.992 117.373 262.366 116.957C262.74 116.541 263.022 116.051 263.195 115.518C263.367 114.986 263.425 114.423 263.366 113.867ZM276.733 112.512V107.153H279.428V120.43H276.733V115.914L271.239 110.705H271.164V120.43H268.469V107.153H270.968L276.643 112.512H276.733ZM147.271 112.602H115.297V114.951H147.286L147.271 112.602Z" fill="white"/>
</svg>
