<?xml version="1.0" encoding="utf-8"?>
<!-- Generator: Adobe Illustrator 25.2.1, SVG Export Plug-In . SVG Version: 6.00 Build 0)  -->
<svg version="1.1" id="Ebene_1" xmlns="http://www.w3.org/2000/svg" xmlns:xlink="http://www.w3.org/1999/xlink" x="0px" y="0px"
	 viewBox="0 0 32 32" style="enable-background:new 0 0 32 32;" xml:space="preserve">
<style type="text/css">
	.st0{fill:#5054A1;}
	.st1{fill:#EC6566;}
</style>
<g>
	<path class="st0" d="M27.4,10.3c-0.5,0-0.9,0.1-1.4,0.3L20.6,5V3.8h3.9C24.9,5,26,5.9,27.3,5.9c1.6,0,3-1.4,3-3S29,0,27.4,0
		c-1.4,0-2.4,0.9-2.8,2.1h-3.9V0.3h-9.4v1.8H7.4C7.1,0.9,5.9,0,4.6,0c-1.7,0-3,1.4-3,3s1.4,3,3,3C5.9,5.9,7,5,7.4,3.8h3.9V5
		l-5.4,5.6c-0.4-0.2-0.9-0.3-1.4-0.3c-1.6,0-3,1.4-3,3s1.4,3,3,3s3-1.4,3-3c0-0.5-0.1-1-0.4-1.4l4.2-4.3v2h1l-5,11.1
		c-0.1,0-0.3,0-0.4,0c-1.6,0-3,1.4-3,3c0,1.6,1.4,3,3,3s3-1.4,3-3c0-0.9-0.4-1.7-1-2.2l5.4-11.8h0.8v16.6C13.9,26.6,13,27.7,13,29
		c0,1.6,1.4,3,3,3s3-1.4,3-3c0-1.4-0.9-2.4-2.1-2.8V9.6h0.8l5.4,11.8c-0.6,0.5-1,1.4-1,2.2c0,1.6,1.4,3,3,3c1.6,0,3-1.4,3-3
		s-1.4-3-3-3c-0.1,0-0.3,0-0.4,0l-5-11.1h1v-2l4.2,4.3c-0.2,0.4-0.4,0.9-0.4,1.4c0,1.6,1.4,3,3,3c1.6,0,3-1.4,3-3S29,10.3,27.4,10.3
		z M27.4,1.8c0.7,0,1.2,0.5,1.2,1.2s-0.5,1.2-1.2,1.2c-0.7,0-1.2-0.5-1.2-1.2S26.7,1.8,27.4,1.8z M4.6,4.2C3.9,4.2,3.4,3.6,3.4,3
		s0.5-1.2,1.2-1.2c0.7,0,1.2,0.5,1.2,1.2S5.2,4.2,4.6,4.2z M4.6,14.4c-0.7,0-1.2-0.5-1.2-1.2s0.5-1.2,1.2-1.2s1.2,0.5,1.2,1.2
		S5.2,14.4,4.6,14.4z M6.9,24.8c-0.7,0-1.2-0.5-1.2-1.2c0-0.7,0.5-1.2,1.2-1.2s1.2,0.5,1.2,1.2C8.1,24.3,7.6,24.8,6.9,24.8z
		 M15.9,30.2c-0.7,0-1.2-0.5-1.2-1.2c0-0.7,0.5-1.2,1.2-1.2c0.7,0,1.2,0.5,1.2,1.2C17.1,29.7,16.6,30.2,15.9,30.2z M26.2,23.6
		c0,0.7-0.5,1.2-1.2,1.2s-1.2-0.5-1.2-1.2c0-0.7,0.5-1.2,1.2-1.2S26.2,23,26.2,23.6z M13.1,2.1h5.8v5.8h-5.8V2.1z M27.4,14.4
		c-0.7,0-1.2-0.5-1.2-1.2s0.5-1.2,1.2-1.2c0.7,0,1.2,0.5,1.2,1.2S28.1,14.4,27.4,14.4z"/>
	<g>
		<rect x="14.9" y="3.8" class="st1" width="2.3" height="2.3"/>
	</g>
</g>
</svg>
